<svg width="768" height="17" viewBox="0 0 768 17" fill="none" xmlns="http://www.w3.org/2000/svg">
<path d="M770 17C763.958 17 760.803 13.6 758.252 10.8652C755.97 8.42609 754.292 6.65217 750.734 6.65217C747.109 6.65217 745.497 8.42609 743.215 10.8652C740.664 13.6 737.509 17 731.467 17C725.425 17 722.27 13.6 719.719 10.8652C717.437 8.42609 715.759 6.65217 712.201 6.65217C708.643 6.65217 706.964 8.42609 704.682 10.8652C702.131 13.6 698.976 17 692.934 17C686.892 17 683.737 13.6 681.186 10.8652C678.904 8.42609 677.226 6.65217 673.668 6.65217C670.043 6.65217 668.432 8.42609 666.149 10.8652C663.598 13.6 660.443 17 654.401 17C648.36 17 645.205 13.6 642.654 10.8652C640.371 8.42609 638.693 6.65217 635.135 6.65217C631.51 6.65217 629.899 8.42609 627.616 10.8652C624.797 13.6 621.642 17 615.6 17C609.558 17 606.403 13.6 603.852 10.8652C601.57 8.42609 599.891 6.65217 596.334 6.65217C592.708 6.65217 591.097 8.42609 588.815 10.8652C586.264 13.6 583.109 17 577.067 17C571.025 17 567.87 13.6 565.319 10.8652C563.037 8.42609 561.359 6.65217 557.801 6.65217C554.176 6.65217 552.565 8.42609 550.282 10.8652C547.597 13.6 544.442 17 538.4 17C532.358 17 529.203 13.6 526.652 10.8652C524.37 8.42609 522.691 6.65217 519.134 6.65217C515.508 6.65217 513.897 8.42609 511.615 10.8652C509.064 13.6 505.909 17 499.867 17C493.825 17 490.67 13.6 488.119 10.8652C485.837 8.42609 484.159 6.65217 480.601 6.65217C477.043 6.65217 475.365 8.42609 473.082 10.8652C470.464 13.6 467.242 17 461.2 17C455.158 17 452.003 13.6 449.452 10.8652C447.17 8.42609 445.491 6.65217 441.934 6.65217C438.309 6.65217 436.697 8.42609 434.415 10.8652C431.864 13.6 428.709 17 422.667 17C416.625 17 413.47 13.6 410.919 10.8652C408.637 8.42609 406.959 6.65217 403.401 6.65217C399.776 6.65217 398.165 8.42609 395.882 10.8652C393.331 13.6 390.176 17 384.134 17C378.093 17 374.937 13.6 372.386 10.8652C370.104 8.42609 368.426 6.65217 364.868 6.65217C361.31 6.65217 359.632 8.42609 357.349 10.8652C354.798 13.6 351.643 17 345.601 17C339.56 17 336.405 13.6 333.854 10.8652C331.571 8.42609 329.893 6.65217 326.335 6.65217C322.71 6.65217 321.099 8.42609 318.816 10.8652C316.265 13.6 313.11 17 307.069 17C301.027 17 297.872 13.6 295.321 10.8652C293.038 8.42609 291.36 6.65217 287.802 6.65217C284.177 6.65217 282.566 8.42609 280.283 10.8652C277.733 13.6 274.577 17 268.536 17C262.494 17 259.339 13.6 256.788 10.8652C254.505 8.42609 252.827 6.65217 249.269 6.65217C245.644 6.65217 244.033 8.42609 241.751 10.8652C239.2 13.6 236.045 17 230.003 17C223.961 17 220.806 13.6 218.255 10.8652C215.973 8.42609 214.294 6.65217 210.736 6.65217C207.178 6.65217 205.5 8.42609 203.218 10.8652C200.667 13.6 197.512 17 191.47 17C185.428 17 182.273 13.6 179.722 10.8652C177.44 8.42609 175.761 6.65217 172.203 6.65217C168.578 6.65217 166.967 8.42609 164.685 10.8652C162.134 13.6 158.979 17 152.937 17C146.895 17 143.74 13.6 141.189 10.8652C138.907 8.42609 137.229 6.65217 133.671 6.65217C130.046 6.65217 128.434 8.42609 126.152 10.8652C123.601 13.6 120.446 17 114.404 17C108.362 17 105.207 13.6 102.656 10.8652C100.374 8.42609 98.6956 6.65217 95.1377 6.65217C91.5127 6.65217 89.9016 8.42609 87.6191 10.8652C84.464 13.6 81.2417 17 75.2 17C69.1583 17 66.0031 13.6 63.4522 10.8652C61.1697 8.42609 59.4915 6.65217 55.9336 6.65217C52.3085 6.65217 50.6974 8.42609 48.415 10.8652C45.864 13.6 42.7089 17 36.6671 17C30.6254 17 27.4703 13.6 24.9193 10.8652C22.5697 8.42609 20.8915 6.65217 17.3336 6.65217C13.7085 6.65217 12.0974 8.42609 9.81496 10.8652C7.19687 13.6 4.04174 17 -2 17V10.3478C1.62504 10.3478 3.23617 8.57391 5.51861 6.13478C8.06956 3.4 11.2247 0 17.3336 0C23.3753 0 26.5304 3.4 29.0814 6.13478C31.3638 8.57391 33.0421 10.3478 36.6 10.3478C40.225 10.3478 41.8362 8.57391 44.1186 6.13478C46.6696 3.4 49.8918 0 55.9336 0C61.9753 0 65.1304 3.4 67.6814 6.13478C69.9638 8.57391 71.6421 10.3478 75.2 10.3478C78.825 10.3478 80.4362 8.57391 82.7186 6.13478C85.2696 3.4 88.4247 0 94.4664 0C100.508 0 103.663 3.4 106.214 6.13478C108.497 8.57391 110.175 10.3478 113.733 10.3478C117.358 10.3478 118.969 8.57391 121.251 6.13478C123.802 3.4 126.958 0 132.999 0C139.041 0 142.196 3.4 144.747 6.13478C147.03 8.57391 148.708 10.3478 152.266 10.3478C155.891 10.3478 157.502 8.57391 159.784 6.13478C162.335 3.4 165.49 0 171.532 0C177.574 0 180.729 3.4 183.28 6.13478C185.562 8.57391 187.241 10.3478 190.799 10.3478C194.424 10.3478 196.035 8.57391 198.317 6.13478C200.868 3.4 204.023 0 210.065 0C216.107 0 219.262 3.4 221.813 6.13478C224.095 8.57391 225.774 10.3478 229.331 10.3478C232.957 10.3478 234.568 8.57391 236.85 6.13478C239.401 3.4 242.556 0 248.598 0C254.64 0 257.795 3.4 260.346 6.13478C262.628 8.57391 264.306 10.3478 267.864 10.3478C271.422 10.3478 273.101 8.57391 275.383 6.13478C277.934 3.4 281.089 0 287.131 0C293.173 0 296.328 3.4 298.879 6.13478C301.161 8.57391 302.839 10.3478 306.397 10.3478C310.022 10.3478 311.633 8.57391 313.916 6.13478C316.467 3.4 319.622 0 325.664 0C331.705 0 334.861 3.4 337.411 6.13478C339.694 8.57391 341.372 10.3478 344.93 10.3478C348.555 10.3478 350.166 8.57391 352.449 6.13478C355 3.4 358.155 0 364.197 0C370.238 0 373.393 3.4 375.944 6.13478C378.227 8.57391 379.905 10.3478 383.463 10.3478C387.088 10.3478 388.699 8.57391 390.982 6.13478C393.533 3.4 396.688 0 402.729 0C408.771 0 411.926 3.4 414.477 6.13478C416.76 8.57391 418.438 10.3478 421.996 10.3478C425.621 10.3478 427.232 8.57391 429.514 6.13478C432.065 3.4 435.221 0 441.262 0C447.304 0 450.459 3.4 453.01 6.13478C455.293 8.57391 456.971 10.3478 460.529 10.3478C464.154 10.3478 465.765 8.57391 468.047 6.13478C470.598 3.4 473.753 0 479.795 0C485.837 0 488.992 3.4 491.543 6.13478C493.825 8.57391 495.504 10.3478 499.062 10.3478C502.687 10.3478 504.298 8.57391 506.58 6.13478C509.131 3.4 512.286 0 518.328 0C524.37 0 527.525 3.4 530.076 6.13478C532.358 8.57391 534.036 10.3478 537.594 10.3478C541.219 10.3478 542.831 8.57391 545.113 6.13478C548.47 3.4 551.625 0 557.734 0C563.775 0 566.93 3.4 569.481 6.13478C571.764 8.57391 573.442 10.3478 577 10.3478C580.558 10.3478 582.236 8.57391 584.519 6.13478C587.07 3.4 590.225 0 596.266 0C602.308 0 605.463 3.4 608.014 6.13478C610.297 8.57391 611.975 10.3478 615.533 10.3478C619.091 10.3478 620.769 8.57391 623.051 6.13478C625.67 3.4 628.825 0 634.934 0C641.042 0 644.13 3.4 646.681 6.13478C648.964 8.57391 650.642 10.3478 654.2 10.3478C657.758 10.3478 659.436 8.57391 661.719 6.13478C664.27 3.4 667.425 0 673.466 0C679.508 0 682.663 3.4 685.214 6.13478C687.497 8.57391 689.175 10.3478 692.733 10.3478C696.358 10.3478 697.969 8.57391 700.251 6.13478C702.802 3.4 705.958 0 711.999 0C718.041 0 721.196 3.4 723.747 6.13478C726.03 8.57391 727.708 10.3478 731.266 10.3478C734.824 10.3478 736.502 8.57391 738.784 6.13478C741.335 3.4 744.49 0 750.532 0C756.574 0 759.729 3.4 762.28 6.13478C764.562 8.57391 766.241 10.3478 769.799 10.3478V17H770Z" fill="#F1F1F1"/>
</svg>
