<svg width="86" height="35" viewBox="0 0 86 35" fill="none" xmlns="http://www.w3.org/2000/svg">
<path d="M4.54732 26.3185C4.54732 22.8185 4.24733 19.4185 4.14733 15.9185C4.14733 15.6185 4.14733 15.2185 4.14733 14.9185C4.14733 15.0185 4.24732 15.1185 4.24732 15.3185C4.74732 16.7185 5.34732 18.0185 6.04732 19.2185C6.74732 20.4185 7.14732 21.8185 7.54732 23.1185C7.34732 23.3185 7.24733 23.5185 7.34733 23.7185C7.34733 23.9186 7.44732 23.9185 7.54732 24.0185C8.04732 24.5185 9.04733 24.2185 9.64733 24.0185C9.84733 23.9185 10.1473 23.8185 10.3473 23.6185C10.6473 23.4185 11.0473 23.0185 10.9473 22.6185C10.9473 22.5185 10.9473 22.4185 10.8473 22.4185C11.2473 21.3185 11.4473 20.2185 11.6473 19.1185C11.8473 17.9185 12.3473 16.8185 12.7473 15.6185C12.7473 16.1185 12.8473 16.6185 12.8473 17.2185C13.0473 19.3185 12.8473 21.5185 12.8473 23.6185C12.8473 24.3185 12.8473 25.0185 13.0473 25.7185C13.1473 26.0185 13.3473 27.2185 13.2473 27.3185C12.7473 27.8185 12.8473 28.4185 13.5473 28.5185C14.3473 28.7185 15.3473 28.4185 15.8473 27.9185C16.8473 27.0185 16.3473 25.5185 16.1473 24.3185C15.7473 22.3185 16.2473 20.1185 16.1473 18.1185C16.0473 15.8185 15.7473 13.6185 15.7473 11.3185C15.7473 9.51855 16.0473 7.61855 15.4473 5.81855C15.4473 5.61855 15.5473 5.41855 15.5473 5.21855C15.7473 4.31855 12.7473 4.81855 12.3473 5.61855C12.0473 5.81855 11.9473 6.11855 12.0473 6.41855C12.0473 6.51855 12.1473 6.51855 12.1473 6.61855C11.5473 9.31855 10.8473 11.9185 9.94733 14.5185C9.64733 15.5185 9.24733 16.5185 8.84733 17.5185C8.34733 16.6185 7.84733 15.6185 7.44733 14.7185C6.24733 11.8185 5.24733 8.91855 3.84733 6.11855C4.04733 4.81855 1.14732 4.91855 0.547324 6.11855C-0.152676 7.51855 -0.0526737 9.01855 0.147326 10.5185C0.447326 12.2185 0.447326 13.9185 0.447326 15.6185C0.447326 18.9185 0.747327 22.3185 0.847327 25.6185C0.547327 25.9185 0.447325 26.3185 0.747325 26.8185C0.847325 27.0185 1.04732 27.1185 1.24732 27.3185C2.44732 28.0185 4.54732 27.5185 4.54732 26.3185Z" fill="black"/>
<path d="M22.7473 7.91856C22.6473 7.31856 19.3473 8.01856 19.4473 8.81856C19.7473 10.6186 19.6473 12.4186 19.5473 14.2186C19.5473 15.9186 19.9473 17.5186 20.1473 19.2186C20.3473 20.9186 20.0473 22.7186 20.2473 24.4186C20.3473 25.2186 20.8473 26.7186 20.3473 27.4186C19.9473 27.8186 21.5473 27.7186 21.6473 27.7186C22.2473 27.6186 23.1473 27.4186 23.5473 26.8186C24.1473 26.1186 23.7473 24.8186 23.5473 24.0186C23.2473 22.3186 23.4473 20.5186 23.3473 18.7186C23.2473 17.0186 22.7473 15.4186 22.6473 13.8186C22.9473 11.8186 23.0473 9.91856 22.7473 7.91856Z" fill="black"/>
<path d="M25.9473 14.6186C26.8473 17.1186 30.5473 15.9186 32.5473 16.1186C35.7473 16.3186 34.8473 20.7186 34.8473 22.7186C34.8473 23.8186 35.8473 25.6186 35.0473 26.5186C34.5473 27.1186 33.3473 27.1186 32.6473 27.1186C31.9473 27.2186 30.7473 27.4186 30.3473 26.7186C29.5473 25.5186 30.4473 23.5186 30.2473 22.1186C30.1473 21.3186 26.8473 22.0186 26.9473 23.0186C27.2473 25.2186 25.7473 28.2186 28.9473 28.6186C31.0473 28.8186 33.3473 28.5186 35.2473 27.8186C36.2473 27.5186 37.1473 27.0186 37.9473 26.3186C38.8473 25.5186 38.5473 24.3186 38.3473 23.3186C37.7473 20.8186 38.9473 18.0186 37.3473 15.8186C35.6473 13.5186 32.3473 15.1186 30.1473 14.5186C28.9473 14.3186 28.9473 12.7186 28.9473 11.7186C28.9473 10.5186 28.8473 9.41857 28.7473 8.21857C28.6473 7.31857 28.7473 6.41857 29.3473 5.81857C29.4473 5.71857 30.0473 5.51857 30.0473 5.51857C30.3473 5.41857 30.6473 5.41857 30.9473 5.41857C32.2473 5.31857 34.8473 5.61857 34.3473 7.51857C34.1473 8.41857 37.3473 7.91857 37.6473 7.01857C38.6473 3.11857 31.5473 3.91857 29.4473 4.41857C27.5473 4.91857 25.5473 6.01857 25.4473 8.11857C25.3473 9.11857 25.6473 10.1186 25.7473 11.1186C25.7473 12.3186 25.4473 13.5186 25.9473 14.6186Z" fill="black"/>
<path d="M40.3473 16.5186C40.2473 18.3186 40.1473 20.1186 40.1473 21.9186C40.1473 22.8186 40.2473 23.7186 40.4473 24.7186C40.5473 25.5186 40.8473 26.7186 40.6473 27.5186C40.4473 28.1186 43.6473 27.7186 43.9473 26.9186C44.4473 25.4186 43.7473 23.5186 43.6473 22.0186C43.5473 20.5186 43.6473 19.1186 43.7473 17.6186C45.4473 17.5186 47.1473 17.4186 48.8473 17.6186C48.9473 18.8186 49.0473 19.9186 49.1473 21.1186C49.2473 22.1186 49.3473 23.0186 49.3473 24.0186C49.3473 24.9186 49.4473 26.1186 49.1473 26.9186C48.4473 28.6186 51.8473 28.5186 52.2473 27.2186C52.8473 25.6186 52.6473 23.7186 52.5473 22.0186C52.2473 19.8186 51.9473 17.8186 51.9473 15.7186C51.8473 12.5186 51.3473 9.41856 51.3473 6.21856C51.3473 4.51856 48.0473 5.11856 48.0473 6.51856C48.0473 9.51856 48.4473 12.5186 48.6473 15.6186C48.6473 15.7186 48.6473 15.7186 48.6473 15.8186C47.0473 15.8186 45.3473 15.9186 43.7473 16.0186C43.9473 12.1186 43.2473 8.21856 43.3473 4.31856C43.3473 3.81856 40.0473 4.21856 40.0473 5.21856C39.8473 9.01856 40.4473 12.7186 40.3473 16.5186Z" fill="black"/>
<path d="M54.4473 21.8186C54.1473 22.1185 54.2473 22.2185 54.4473 22.3186C54.4473 23.8186 54.4473 25.2186 54.2473 26.7186C53.8473 27.3186 54.6473 27.7186 55.1473 27.7186H55.2473C55.8473 27.7186 57.4473 27.4185 57.5473 26.6185C57.7473 24.8186 57.7473 23.1185 57.7473 21.3186C59.0473 19.9186 60.1473 18.2186 61.1473 16.6186C61.7473 17.8186 62.3473 19.1186 62.8473 20.5186C63.5473 22.8186 64.7473 24.9186 65.4473 27.3186C65.9473 28.8186 69.2473 27.9185 68.7473 26.4185C68.0473 24.1185 66.8473 21.9185 66.1473 19.6185C65.3473 17.3185 64.1473 15.2186 63.1473 13.0186C63.9473 11.4186 64.8473 9.71855 65.6473 8.01855C66.3473 6.51855 66.8473 4.81855 68.2473 3.71855C68.7473 3.31855 68.7473 2.91855 68.0473 2.91855C67.3473 2.81855 66.3473 3.11855 65.7473 3.51855C64.4473 4.51855 63.7473 5.71855 63.0473 7.11855C62.2473 8.81855 61.4473 10.5186 60.5473 12.2186C60.4473 12.3186 60.4473 12.4186 60.3473 12.6186C59.9473 12.9186 59.6473 13.2186 59.8473 13.7186C59.1473 15.0186 58.5473 16.3186 57.7473 17.6186C57.4473 12.9186 56.9473 8.31855 56.7473 3.61855C56.7473 2.51855 53.4473 3.21855 53.4473 4.51855C53.6473 10.2186 54.4473 16.0185 54.4473 21.8186Z" fill="black"/>
<path d="M85.9473 15.6186C85.7473 14.9186 84.7473 14.9186 84.0473 15.0186C84.0473 14.7186 84.0473 14.4186 84.0473 14.2186C83.9473 12.0186 83.9473 9.71855 83.7473 7.41855C83.5473 5.31855 82.4473 4.61855 80.4473 4.71855C78.4473 4.81855 76.0473 5.11855 74.1473 5.91855C71.9473 6.81855 70.7473 8.41855 70.3473 10.7186C69.8473 13.2186 70.5473 15.9186 70.6473 18.5186C70.7473 21.5186 70.7473 24.4186 70.7473 27.4186C70.7473 27.9186 74.0473 27.4186 74.0473 26.5186C74.0473 24.2186 74.0473 21.8186 74.0473 19.5186C74.0473 18.8186 74.0473 18.1186 73.9473 17.4186C75.1473 16.9186 77.0473 17.4186 78.2473 17.5186C79.1473 17.6186 80.0473 17.4186 80.9473 17.3186C80.9473 19.2186 81.0473 21.2186 81.1473 23.2186C81.1473 24.2186 81.5473 26.2186 80.8473 27.0186C80.4473 27.4186 82.0473 27.3186 82.1473 27.3186C82.8473 27.2186 83.6473 27.0186 84.0473 26.4186C84.8473 25.5186 84.4473 23.2186 84.3473 22.1186C84.2473 20.5186 84.2473 18.9186 84.2473 17.3186C85.0473 16.9186 86.1473 16.3186 85.9473 15.6186ZM79.3473 15.4186C77.4473 15.4186 75.5473 15.1186 73.6473 15.4186C73.5473 14.3186 73.4473 13.3186 73.3473 12.2186C73.2473 10.2186 73.4473 7.51855 75.2473 6.31855C75.7473 6.01855 76.6473 6.01855 77.2473 5.91855C78.0473 5.81855 78.8473 5.61855 79.6473 6.11855C80.6473 6.81855 80.4473 9.21855 80.4473 10.2186C80.4473 11.9186 80.6473 13.6186 80.7473 15.3186C80.2473 15.4186 79.7473 15.4186 79.3473 15.4186Z" fill="black"/>
<path d="M19.1473 4.11856C19.1473 4.31856 19.1473 4.51856 19.2473 4.61856V4.71856C19.2473 4.81856 19.2473 4.91856 19.2473 5.01856C19.3473 5.21856 19.4473 5.31856 19.6473 5.41856C19.9473 5.61856 20.3473 5.61856 20.7473 5.61856C21.1473 5.61856 21.6473 5.41856 21.9473 5.21856C22.0473 5.11856 22.0473 5.11856 22.1473 5.01856C22.5473 4.71856 22.9473 4.31856 22.7473 3.91856C22.3473 3.01856 22.3473 2.01856 22.4473 1.01856C22.4473 0.218559 21.6473 -0.0814409 20.9473 0.0185591C20.3473 0.118559 19.1473 0.518558 19.1473 1.31856C19.1473 2.11856 19.0473 3.01856 19.2473 3.81856C19.1473 3.91856 19.1473 4.01856 19.1473 4.11856Z" fill="black"/>
<path d="M80.6473 33.3186C79.0473 32.7186 77.3473 32.7186 75.7473 32.5186C74.1473 32.3186 72.5473 32.1185 70.8473 31.9185C69.2473 32.0185 67.5473 31.9186 65.8473 32.0186L60.9473 32.3186C54.4473 32.6186 47.9473 32.6185 41.4473 32.4185C34.9473 32.3185 28.4473 31.9185 21.8473 31.9185C18.5473 31.9185 15.2473 32.0186 11.9473 32.2186C10.3473 32.5186 8.74733 32.7185 7.04733 33.1185C5.44733 33.5185 3.94733 34.0185 2.24733 34.1185C3.84733 34.5185 5.54733 34.4185 7.24733 34.4185C8.84733 34.4185 10.4473 34.5185 12.1473 34.6185C15.3473 34.4185 18.6473 34.4186 21.8473 34.3186C28.3473 34.3186 34.8473 34.6186 41.4473 34.8186C47.9473 34.9186 54.5473 35.0186 61.1473 34.7186L66.0473 34.4185C67.6473 34.3185 69.2473 34.3186 70.8473 34.3186C72.4473 34.2186 74.1473 34.0186 75.7473 33.8186C77.4473 33.6186 78.9473 33.2186 80.6473 33.3186H80.7473V33.2186C80.7473 33.0186 80.7473 32.9186 80.7473 32.7186C80.7473 33.1186 80.7473 33.2186 80.6473 33.3186Z" fill="black"/>
</svg>
