<svg width="21" height="18" fill="none" xmlns="http://www.w3.org/2000/svg">
  <path opacity=".2" d="M20.188 6.857h-3.55L13.188.381C12.985 0 12.58-.095 12.174.095s-.507.572-.304.953l3.145 5.81H5.783l3.145-5.81c.202-.381 0-.762-.305-.953-.406-.19-.811 0-1.014.286l-3.45 6.476H.812c-.406 0-.812.286-.812.762 0 .381.304.762.812.762h.202l.914 2.857c-.203.095-.305.286-.305.572 0 .38.305.666.71.666L4.058 18h12.884l1.725-5.524c.405 0 .71-.286.71-.667 0-.19-.102-.476-.304-.57l.912-2.858h.203c.406 0 .812-.286.812-.762 0-.476-.406-.762-.812-.762Zm-4.565 9.62H5.073L3.854 12.38h13.087l-1.319 4.095Zm1.623-5.525H3.348l-.812-2.666h15.522l-.812 2.666Z" fill="#000"/>
</svg>
