<svg width="67" height="100" fill="none" xmlns="http://www.w3.org/2000/svg">
  <path d="M57.128 9.152c-13.096-12.203-34.211-12.203-47.306 0-13.096 12.202-13.096 31.944 0 44.147 0 0 23.653 21.627 23.653 46.627 0-25 23.653-46.627 23.653-46.627 13.095-12.104 13.095-31.945 0-44.147Z" fill="#fff"/>
  <path d="M47.687 45.164c-.609-3.274.102-6.845 0-10.218-.101-3.77-.71-7.44-.71-11.111 0-2.977.507-6.151-.508-9.028.101-.298.101-.695.203-.992.305-1.488-4.67-.695-5.38.595-.508.397-.711.893-.508 1.29.102.099.102.198.102.397-.914 4.464-2.234 8.73-3.757 13.095a257.52 257.52 0 0 1-1.827 4.86 67.034 67.034 0 0 1-2.335-4.662c-1.928-4.762-3.756-9.623-6.09-14.186.304-2.084-4.569-1.885-5.482 0-1.117 2.38-1.015 4.762-.61 7.242.407 2.877.508 5.654.508 8.531.102 5.556.508 11.012.61 16.568-.508.595-.61 1.19-.102 1.885.203.297.507.496.812.794 1.32.992 4.974.198 4.974-1.786 0-5.754-.406-11.409-.609-17.163V29.59c.101.198.203.396.203.595.914 2.182 1.827 4.365 3.147 6.448 1.218 2.084 1.827 4.266 2.538 6.449-.305.297-.406.595-.305.992-.101.297.102.397.406.496.914.793 2.64.397 3.553 0l1.219-.596c.507-.297 1.218-.992 1.015-1.587 0-.099-.102-.297-.102-.397.71-1.785 1.015-3.571 1.422-5.456.406-1.984 1.116-3.869 1.827-5.754.101.893.101 1.687.203 2.58.304 3.57 0 7.043 0 10.614 0 1.191.101 2.282.304 3.374.102.496.508 2.48.406 2.579-.913.794-.609 1.786.508 1.984 1.32.298 2.944-.1 3.959-.992 1.624-1.389.812-3.77.406-5.754Z" fill="#6BC6B3"/>
</svg>
