<svg width="33" height="22" viewBox="0 0 33 22" fill="none" xmlns="http://www.w3.org/2000/svg">
<path d="M26.7504 10L32.7561 6V22L26.7504 18V10ZM24.7485 10V18C24.7485 20.2 22.9467 22 20.7447 22H4.7294C2.5273 22 0.725586 20.2 0.725586 18V10C0.725586 7.8 2.5273 6 4.7294 6H14.7389C14.7389 4.9 15.6398 4 16.7408 4V2H5.73035C5.12978 2 4.7294 1.6 4.7294 1C4.7294 0.4 5.12978 0 5.73035 0H17.7418C18.3424 0 18.7427 0.4 18.7427 1V4C19.8438 4 20.7447 4.9 20.7447 6C22.9467 6 24.7485 7.8 24.7485 10ZM12.737 10H4.7294V18H12.737V10ZM20.7447 11C20.7447 10.4 20.3443 10 19.7437 10H15.7399C15.1393 10 14.7389 10.4 14.7389 11C14.7389 11.6 15.1393 12 15.7399 12H19.7437C20.3443 12 20.7447 11.6 20.7447 11Z" fill="#63D1BB"/>
</svg>
